<mxfile host="app.diagrams.net" modified="2023-12-12T14:57:25.745Z" agent="Mozilla/5.0 (Windows NT 10.0; Win64; x64) AppleWebKit/537.36 (KHTML, like Gecko) Chrome/120.0.0.0 Safari/537.36" version="22.1.7" etag="6yGq-4Di0Fd6lF0jAxjz" type="github">
  <diagram name="Page-1" id="A2zpUGZdG0gWiG5HKpVc">
    <mxGraphModel>
      <root>
        <mxCell id="0" />
        <mxCell id="1" parent="0" />
      </root>
    </mxGraphModel>
  </diagram>
</mxfile>
